<svg width="30" height="30" viewBox="0 0 30 30" fill="none" xmlns="http://www.w3.org/2000/svg">
    <circle cx="12.5" cy="12.5" r="12.5" transform="matrix(1 0 0 -1 2 27)" fill="#CACED8"/>
    <path d="M15.0092 19.8021L11.1267 15.3694C11.0806 15.3166 11.0481 15.2595 11.029 15.1979C11.0097 15.1363 11 15.0704 11 15C11 14.9296 11.0097 14.8637 11.029 14.8021C11.0481 14.7405 11.0806 14.6834 11.1267 14.6306L15.0092 10.1847C15.1167 10.0616 15.2512 10 15.4124 10C15.5737 10 15.712 10.066 15.8272 10.1979C15.9424 10.3298 16 10.4837 16 10.6596C16 10.8355 15.9424 10.9894 15.8272 11.1214L12.4401 15L15.8272 18.8786C15.9347 19.0018 15.9885 19.1534 15.9885 19.3335C15.9885 19.514 15.9309 19.6702 15.8157 19.8021C15.7005 19.934 15.5661 20 15.4124 20C15.2588 20 15.1244 19.934 15.0092 19.8021Z" fill="#353535"/>
</svg>
