<svg width="30.000000" height="30.000000" viewBox="0 0 30 30" fill="none" xmlns="http://www.w3.org/2000/svg" xmlns:xlink="http://www.w3.org/1999/xlink">
    <desc>
        Created with Pixso.
    </desc>
    <defs/>
    <path id="Ellipse 3" d="M24 15C24 17.37 23.07 19.54 21.56 21.15C19.93 22.89 17.78 23.83 15.58 23.97C13.2 24.13 10.98 23.35 9.28 21.94C7.44 20.43 6.36 18.34 6.07 16.16C5.76 13.8 6.4 11.53 7.69 9.74C9.08 7.81 11.09 6.59 13.26 6.17C15.59 5.71 17.9 6.2 19.77 7.37L18.95 8.68C17.28 7.63 15.35 7.33 13.56 7.69C11.63 8.06 10.02 9.16 8.95 10.64C7.8 12.24 7.37 14.14 7.61 15.96C7.86 17.91 8.85 19.59 10.26 20.75C11.78 22 13.65 22.55 15.48 22.43C17.44 22.3 19.18 21.42 20.43 20.09C21.78 18.65 22.44 16.82 22.45 15L24 15Z" fill="#FFFFFF" fill-opacity="1.000000" fill-rule="evenodd"/>
</svg>
