<svg width="30.000000" height="30.000000" viewBox="0 0 30 30" fill="none" xmlns="http://www.w3.org/2000/svg" xmlns:xlink="http://www.w3.org/1999/xlink">
    <desc>
        Created with Pixso.
    </desc>
    <defs>
        <clipPath id="clip23_403">
            <rect id="state=normal" rx="-0.500000" width="29.000000" height="29.000000" transform="translate(0.500000 0.500000)" fill="white" fill-opacity="0"/>
        </clipPath>
    </defs>
    <rect id="state=normal" rx="-0.500000" width="29.000000" height="29.000000" transform="translate(0.500000 0.500000)" fill="#FFFFFF" fill-opacity="0"/>
    <g clip-path="url(#clip23_403)">
        <path id="Vector" d="M8.88 11.11L17.33 11.11C17.51 11.11 17.67 11.18 17.8 11.3C17.92 11.43 18 11.6 18 11.77L18 22.44C18 22.62 17.92 22.79 17.8 22.91C17.67 23.04 17.51 23.11 17.33 23.11L8.88 23.11C8.71 23.11 8.54 23.04 8.41 22.91C8.29 22.79 8.22 22.62 8.22 22.44L8.22 11.77C8.22 11.6 8.29 11.43 8.41 11.3C8.54 11.18 8.71 11.11 8.88 11.11Z" fill="#D4D8E2" fill-opacity="1.000000" fill-rule="evenodd"/>
        <path id="Vector" d="M11.66 8L20.11 8C20.28 8 20.45 8.07 20.58 8.19C20.7 8.32 20.77 8.48 20.77 8.66L20.77 19.33C20.77 19.51 20.7 19.67 20.58 19.8C20.45 19.92 20.28 20 20.11 20L19 20L19 11C19 10.44 18.55 10 18 10L10.99 10L10.99 8.66C10.99 8.48 11.06 8.32 11.19 8.19C11.31 8.07 11.48 8 11.66 8Z" fill="#D4D8E2" fill-opacity="1.000000" fill-rule="evenodd"/>
    </g>
</svg>
