<svg width="30" height="30" viewBox="0 0 30 30" fill="none" xmlns="http://www.w3.org/2000/svg">
    <path d="M20.7625 13.3376L15.4433 18.5789C15.3799 18.6411 15.3113 18.6851 15.2375 18.7108C15.1636 18.7369 15.0844 18.75 15 18.75C14.9156 18.75 14.8364 18.7369 14.7625 18.7108C14.6887 18.6851 14.6201 18.6411 14.5567 18.5789L9.22164 13.3376C9.07388 13.1924 9 13.0109 9 12.7932C9 12.5755 9.07916 12.3888 9.23747 12.2333C9.39578 12.0778 9.58048 12 9.79156 12C10.0026 12 10.1873 12.0778 10.3456 12.2333L15 16.8059L19.6544 12.2333C19.8021 12.0881 19.9841 12.0156 20.2002 12.0156C20.4168 12.0156 20.6042 12.0933 20.7625 12.2488C20.9208 12.4044 21 12.5858 21 12.7932C21 13.0006 20.9208 13.182 20.7625 13.3376Z" fill="#57585A"/>
</svg>
