<svg width="30" height="30" viewBox="0 0 30 30" fill="none" xmlns="http://www.w3.org/2000/svg">
    <circle cx="15.5" cy="14.5" r="12.5" transform="rotate(180 15.5 14.5)" fill="#D4D8E2" />
    <path d="M14.9908 19.8021L18.8733 15.3694C18.9194 15.3166 18.9519 15.2595 18.971 15.1979C18.9903 15.1363 19 15.0704 19 15C19 14.9296 18.9903 14.8637 18.971 14.8021C18.9519 14.7405 18.9194 14.6834 18.8733 14.6306L14.9908 10.1847C14.8833 10.0616 14.7488 10 14.5876 10C14.4263 10 14.288 10.066 14.1728 10.1979C14.0576 10.3298 14 10.4837 14 10.6596C14 10.8355 14.0576 10.9894 14.1728 11.1214L17.5599 15L14.1728 18.8786C14.0653 19.0018 14.0115 19.1534 14.0115 19.3335C14.0115 19.514 14.0691 19.6702 14.1843 19.8021C14.2995 19.934 14.4339 20 14.5876 20C14.7412 20 14.8756 19.934 14.9908 19.8021Z" fill="#353535" />
</svg>