<svg width="30" height="30" viewBox="0 0 30 30" fill="none" xmlns="http://www.w3.org/2000/svg">
    <path d="M24 9H6C5.44772 9 5 9.44772 5 10V14C5 14.5523 5.44772 15 6 15H24C24.5523 15 25 14.5523 25 14V10C25 9.44772 24.5523 9 24 9Z" fill="#D4D8E2"/>
    <path d="M10 8.5V9H12.5C12.5 8.44772 12.9477 8 13.5 8H16.5C17.0523 8 17.5 8.44772 17.5 9H20V8.5C20 7.39543 19.1046 6.5 18 6.5H12C10.8954 6.5 10 7.39543 10 8.5Z" fill="#D4D8E2"/>
    <path d="M25 22V16C25 15.5506 24.4172 15.3742 24.1679 15.7481L24.1394 15.7908C24.0523 15.9215 23.9057 16 23.7486 16H17V17.5C17 17.7761 16.7761 18 16.5 18H13.5C13.2239 18 13 17.7761 13 17.5V16H6.25139C6.09433 16 5.94767 15.9215 5.86056 15.7908L5.83205 15.7481C5.58279 15.3742 5 15.5506 5 16V22C5 22.5523 5.44772 23 6 23H24C24.5523 23 25 22.5523 25 22Z" fill="#D4D8E2"/>
</svg>
