<svg width="30" height="30" viewBox="0 0 30 30" fill="none" xmlns="http://www.w3.org/2000/svg">
    <path d="M5 25H26C26.5523 25 27 24.5523 27 24C27 23.4477 26.5523 23 26 23H25.5C24.9477 23 24.5 22.5523 24.5 22V13.8022C24.5 13.3335 24.1745 12.9277 23.7169 12.826L21.2169 12.2704C20.5924 12.1316 20 12.6069 20 13.2466V22.5C20 22.7761 19.7761 23 19.5 23C19.2239 23 19 22.7761 19 22.5V4.42283C19 3.73022 18.3129 3.24734 17.6613 3.48194L7.16128 7.26194C6.76452 7.40477 6.5 7.78114 6.5 8.20283V22C6.5 22.5523 6.05228 23 5.5 23H5C4.44772 23 4 23.4477 4 24C4 24.5523 4.44772 25 5 25Z" fill="#D4D8E2"/>
</svg>
