<svg width="120" height="79" viewBox="0 0 120 79" fill="none" xmlns="http://www.w3.org/2000/svg">
    <g clip-path="url(#clip0_9_1410)">
        <path d="M80.981 55.8302C79.9054 55.5226 78.7454 55.3688 77.5011 55.3688C75.8982 55.3688 74.5062 55.4842 73.3251 55.7148C72.9282 55.7859 72.5421 55.8645 72.1666 55.9508V59.303C72.8199 59.0941 73.5013 58.9265 74.2109 58.7999C75.1811 58.6269 76.0775 58.5404 76.9 58.5404C78.1443 58.5404 78.1664 58.675 78.7148 58.9441C79.2632 59.194 79.484 59.7503 79.484 60.2501C79.484 60.8844 79.183 61.4765 78.3183 61.7071C77.4747 61.9378 77.0687 62.0035 75.508 62.0035H73.768V64.9732H75.6029C76.7207 64.9732 77.0553 65.0405 77.7724 65.1751C78.4895 65.3096 79.0273 65.5211 79.3859 65.8094C79.7444 66.0785 79.9211 66.4427 79.9211 66.8069C79.9211 67.249 79.7128 67.6451 79.2909 67.9142C78.8902 68.1833 78.4684 68.4401 77.7724 68.5554C77.0975 68.6708 76.784 68.6638 75.9193 68.6638C74.7616 68.6638 73.6647 68.4038 72.6285 68.1581L72.5658 68.1433C72.268 68.0713 71.9833 67.8511 71.7117 67.7743V71.2557C72.3866 71.3902 73.2185 71.5425 74.0199 71.6882C74.8941 71.8339 75.6227 71.9796 76.5836 71.9796C78.5451 71.9796 80.148 71.7585 81.3923 71.3164C82.6578 70.8551 83.5858 70.2592 84.1763 69.5288C84.7879 68.7792 85.0937 67.6804 85.0937 66.8154C85.0937 66.0273 84.9145 65.4026 84.5559 64.9413C84.2185 64.4608 83.7545 64.0859 83.1639 63.8168C82.5734 63.5285 81.909 63.3075 81.1709 63.1537V63.0095C82.2254 62.7596 83.0585 62.356 83.6701 61.7985C84.3028 61.2411 84.6192 60.4915 84.6192 59.5496C84.6192 58.5885 84.2817 57.8004 83.6068 57.1853C82.953 56.5702 82.0778 56.1185 80.981 55.8302Z" fill="#57585A"/>
        <path d="M27.4498 55.3234C29.255 55.3234 31.666 55.7046 32.7845 57.1174C34.1687 58.6473 34.8264 60.8961 34.8264 63.6236C34.8264 65.4484 34.4799 66.6061 33.9502 67.8619C33.1488 69.5755 32.1931 70.4128 31.2709 71.0407C30.3486 71.6686 28.5486 71.9826 27.3321 71.9826C26.5668 71.9826 25.8997 71.8844 25.3306 71.6882C24.7812 71.492 24.3103 71.2369 23.9178 70.923C23.5254 70.609 23.0037 70.1472 22.7093 69.794C22.7878 70.1668 22.6701 70.4019 22.7093 70.814C22.7486 71.2064 22.7093 71.4415 22.7093 71.8339V78.8979H17.741V55.6178L22.7306 55.6472L21.9205 57.7075H22.8877C23.182 57.2758 23.5352 56.8834 23.9473 56.5302C24.3593 56.1574 24.8499 55.863 25.4189 55.6472C26.0076 55.4313 26.6845 55.3234 27.4498 55.3234ZM25.9175 59.0116C25.1523 59.0116 24.639 59.2805 24.1877 59.5944C23.6777 60.0327 23.3863 60.323 23.0949 60.9058C22.8986 61.5337 22.729 62.1617 22.7093 63.1232V63.5941C22.7093 64.6341 22.8074 65.5171 23.0037 66.2431C23.1999 66.9495 23.5335 67.4891 24.0044 67.8619C24.4753 68.2347 25.113 68.4212 25.9175 68.4212C26.5847 68.4212 27.6901 68.0541 28.1218 67.6812C28.5535 67.3084 29.0716 66.8773 29.2875 66.1513C29.5033 65.4253 29.5894 64.6047 29.5894 63.5647C29.5894 61.9949 29.3441 60.8176 28.8536 60.0327C28.443 59.3759 26.9575 59.0116 25.9175 59.0116Z" fill="#57585A"/>
        <path d="M63.8202 28.996H50.7793V32.8194H54.932V44.9511H59.7404V32.8194H63.8202V28.996Z" fill="#A70A13"/>
        <path d="M38.2485 29.0686H34.0229V45.0237H38.2485L44.8782 34.5327V45.0237H49.1766V29.0686H44.6597L38.2485 38.9768V29.0686Z" fill="#A70A13"/>
        <path d="M38.6855 21.4189H35.3342C35.8442 28.1215 46.9181 28.9229 48.0837 21.4189H44.6596C44.2225 25.4259 39.4141 25.2802 38.6855 21.4189Z" fill="#A70A13"/>
        <path d="M24.3339 28.6135C26.4923 28.6135 28.1406 29.1007 29.2787 30.0426C30.4364 30.9648 31.0152 32.3874 31.0152 34.3104V45.024H26.6591V42.846H26.519C26.0676 43.415 25.9896 43.7769 25.499 44.1498C25.0281 44.5226 24.5497 44.8965 23.9218 45.0534C23.3135 45.23 22.5581 45.3183 21.6555 45.3183C20.7136 45.3183 20.2972 45.1417 19.5319 44.7885C18.7863 44.4157 18.1976 43.8565 17.7659 43.1109C17.3343 42.3456 17.1184 41.3841 17.1184 40.2264C17.1184 38.5193 17.7169 37.2635 18.9138 36.459C20.1108 35.6349 21.4691 35.0378 23.863 34.9594L26.6591 34.8711V34.3104C26.6591 33.4666 26.4335 32.8485 25.9822 32.4561C25.5505 32.0636 24.9422 31.8674 24.1573 31.8674C23.3724 31.8674 22.6072 31.9852 21.8615 32.2206C21.1159 32.4365 19.3681 33.4709 18.6224 33.8045V30.2346C19.4858 29.7833 20.0349 29.5061 21.0374 29.1418C22.097 28.8867 23.1958 28.6135 24.3339 28.6135ZM24.952 37.6363C23.5392 37.6756 22.8495 37.9306 22.3001 38.4016C21.7507 38.8725 21.476 39.4906 21.476 40.2559C21.476 40.923 21.6722 41.4037 22.0646 41.6981C22.4571 41.9728 22.6758 42.1101 23.3037 42.1101C24.2456 42.1101 25.0403 41.8354 25.6878 41.286C26.3353 40.717 26.6591 39.9223 26.6591 38.9019V37.5774L24.952 37.6363Z" fill="#A70A13"/>
        <path d="M43.1997 55.2234C45.5307 55.2234 47.3107 55.7121 48.5398 56.6569C49.7901 57.582 50.4152 59.009 50.4152 60.9379V71.6846H45.7108V69.4998H45.5594C45.072 70.0706 44.9877 70.4337 44.4579 70.8077C43.9493 71.1816 43.4328 71.5567 42.7546 71.7141C42.0977 71.8913 41.2819 71.9798 40.3071 71.9798C39.2899 71.9798 38.8402 71.8027 38.0137 71.4484C37.2085 71.0744 36.5727 70.5135 36.1065 69.7656C35.6403 68.9979 35.4072 68.0335 35.4072 66.8722C35.4072 65.1598 36.0536 63.9001 37.3462 63.0931C38.6389 62.2665 40.1058 61.6676 42.6911 61.5889L45.7108 61.5003V60.9379C45.7108 60.0915 45.4671 59.4715 44.9797 59.0779C44.5135 58.6842 43.8566 58.4874 43.0089 58.4874C42.1613 58.4874 41.3348 58.6055 40.5296 58.8417C39.7243 59.0582 37.8367 60.0958 37.0315 60.4304V56.8495C37.9639 56.3968 38.5569 56.1188 39.6396 55.7534C40.7839 55.4975 41.9706 55.2234 43.1997 55.2234ZM43.8672 64.2741C42.3414 64.3135 41.5966 64.5693 41.0032 65.0417C40.4099 65.5141 40.1132 66.1341 40.1132 66.9017C40.1132 67.5709 40.3251 68.0532 40.7489 68.3484C41.1728 68.624 41.409 68.7617 42.0871 68.7617C43.1043 68.7617 43.9625 68.4862 44.6618 67.9351C45.3611 67.3643 45.7108 66.5671 45.7108 65.5436V64.215L43.8672 64.2741Z" fill="#57585A"/>
        <path d="M106.586 4.07947L71.543 25.6443L93.9092 26.8828L106.586 4.07947Z" fill="#EE1B2C"/>
        <path d="M93.9094 26.8828L106.586 4.07947V45.5335L93.9094 26.8828Z" fill="#A70A13"/>
        <mask id="path-10-inside-1_9_1410" fill="white">
            <path d="M93.9762 48.3466C97.6963 48.5269 101.408 47.8458 104.821 46.3562L101.559 41.9161C99.2181 42.7626 96.7288 43.1385 94.2346 43.0176C91.335 42.877 88.5071 42.0687 85.9713 40.6557C83.4354 39.2427 81.2602 37.2631 79.615 34.8714C78.1829 32.7893 77.1861 30.4438 76.6798 27.9758L71.2056 27.6251C71.7349 31.3117 73.1085 34.8264 75.2192 37.895C77.33 40.9636 80.1209 43.5034 83.3744 45.3162C86.6279 47.1291 90.2561 48.1662 93.9762 48.3466Z"/>
        </mask>
        <path d="M104.821 46.3562L107.036 51.431L113.385 48.6602L109.283 43.0776L104.821 46.3562ZM83.3744 45.3162L86.0694 40.4795H86.0694L83.3744 45.3162ZM75.2192 37.895L79.7812 34.7571V34.7571L75.2192 37.895ZM71.2056 27.6251L71.5596 22.0995L64.7559 21.6636L65.7249 28.412L71.2056 27.6251ZM79.615 34.8714L75.0531 38.0093L75.0531 38.0093L79.615 34.8714ZM85.9713 40.6557L88.6664 35.8189L88.6664 35.8189L85.9713 40.6557ZM94.2346 43.0176L93.9664 48.548H93.9664L94.2346 43.0176ZM101.559 41.9161L106.021 38.6375L103.569 35.3012L99.6759 36.7092L101.559 41.9161ZM76.6798 27.9758L82.1038 26.8631L81.254 22.7205L77.0338 22.4502L76.6798 27.9758ZM102.607 41.2814C99.9748 42.43 97.1129 42.9552 94.2443 42.8161L93.708 53.877C98.2797 54.0987 102.841 53.2616 107.036 51.431L102.607 41.2814ZM94.2443 42.8161C91.3758 42.677 88.5782 41.8774 86.0694 40.4795L80.6793 50.153C84.6776 52.3808 89.1363 53.6553 93.708 53.877L94.2443 42.8161ZM86.0694 40.4795C83.5607 39.0816 81.4087 37.1233 79.7812 34.7571L70.6573 41.0329C73.2513 44.804 76.681 47.9251 80.6793 50.153L86.0694 40.4795ZM79.7812 34.7571C78.1536 32.3909 77.0945 29.6808 76.6863 26.8381L65.7249 28.412C66.3754 32.9426 68.0634 37.2618 70.6573 41.0329L79.7812 34.7571ZM75.0531 38.0093C77.1814 41.1035 79.9956 43.6644 83.2762 45.4924L88.6664 35.8189C86.8753 34.8209 85.3389 33.4228 84.1769 31.7335L75.0531 38.0093ZM83.2762 45.4924C86.5568 47.3204 90.2153 48.3661 93.9664 48.548L94.5027 37.4872C92.4548 37.3878 90.4574 36.8169 88.6664 35.8189L83.2762 45.4924ZM93.9664 48.548C97.1932 48.7045 100.414 48.2181 103.442 47.123L99.6759 36.7092C98.0226 37.307 96.2644 37.5726 94.5027 37.4872L93.9664 48.548ZM109.283 43.0776L106.021 38.6375L97.097 45.1947L100.36 49.6348L109.283 43.0776ZM71.2559 29.0884C71.9108 32.2814 73.2003 35.3157 75.0531 38.0093L84.1769 31.7335C83.1654 30.2629 82.4614 28.6063 82.1038 26.8631L71.2559 29.0884ZM70.8516 33.1507L76.3258 33.5014L77.0338 22.4502L71.5596 22.0995L70.8516 33.1507Z" fill="#EE1B2C" mask="url(#path-10-inside-1_9_1410)"/>
        <mask id="path-12-inside-2_9_1410" fill="white">
            <path d="M74.3169 11.8944C72.258 15.3832 71.1083 19.3331 70.9734 23.3818L76.7103 20.2535C77.1331 18.2717 77.8743 16.3637 78.9116 14.606C80.5164 11.8868 82.7783 9.61425 85.49 7.9968C88.2016 6.37935 91.276 5.46885 94.4311 5.34886C96.3504 5.27587 98.2622 5.49683 100.102 5.9978L105.925 2.5337C102.298 0.728739 98.2764 -0.136471 94.2284 0.0174749C90.1804 0.171421 86.2359 1.33959 82.7568 3.41479C79.2778 5.48998 76.3757 8.40572 74.3169 11.8944Z"/>
        </mask>
        <path d="M70.9734 23.3818L65.4395 23.1973L65.1167 32.882L73.6242 28.2429L70.9734 23.3818ZM74.3169 11.8944L79.0853 14.7085L74.3169 11.8944ZM82.7568 3.41479L85.5933 8.17001H85.5933L82.7568 3.41479ZM105.925 2.5337L108.756 7.29229L117.482 2.10103L108.392 -2.42321L105.925 2.5337ZM94.4311 5.34886L94.6416 10.8818L94.4311 5.34886ZM78.9116 14.606L74.1432 11.7919L74.1432 11.7919L78.9116 14.606ZM76.7103 20.2535L79.361 25.1146L81.5944 23.8968L82.1253 21.4089L76.7103 20.2535ZM100.102 5.9978L98.6467 11.3401L100.913 11.9575L102.932 10.7564L100.102 5.9978ZM76.5072 23.5662C76.6113 20.4444 77.4978 17.3986 79.0853 14.7085L69.5484 9.08034C67.0182 13.3677 65.6054 18.2218 65.4395 23.1973L76.5072 23.5662ZM79.0853 14.7085C80.6729 12.0184 82.9106 9.77016 85.5933 8.17001L79.9204 -1.34044C75.645 1.2098 72.0785 4.793 69.5484 9.08034L79.0853 14.7085ZM85.5933 8.17001C88.2759 6.56986 91.3174 5.6691 94.4388 5.5504L94.018 -5.51545C89.0433 -5.32626 84.1958 -3.89068 79.9204 -1.34044L85.5933 8.17001ZM94.4388 5.5504C97.5602 5.43169 100.661 6.09884 103.458 7.49062L108.392 -2.42321C103.935 -4.64136 98.9926 -5.70463 94.018 -5.51545L94.4388 5.5504ZM94.2207 -0.184061C90.139 -0.0288311 86.1616 1.14908 82.6535 3.24158L88.3264 12.752C90.2416 11.6096 92.4131 10.9665 94.6416 10.8818L94.2207 -0.184061ZM82.6535 3.24158C79.1455 5.33407 76.2192 8.27413 74.1432 11.7919L83.6801 17.4201C84.8135 15.4996 86.4112 13.8944 88.3264 12.752L82.6535 3.24158ZM74.1432 11.7919C72.8012 14.0659 71.8423 16.5342 71.2952 19.098L82.1253 21.4089C82.424 20.0091 82.9475 18.6616 83.6801 17.4201L74.1432 11.7919ZM73.6242 28.2429L79.361 25.1146L74.0595 15.3923L68.3226 18.5206L73.6242 28.2429ZM101.557 0.655473C99.177 0.00737237 96.7037 -0.27849 94.2207 -0.184061L94.6416 10.8818C95.9972 10.8302 97.3474 10.9863 98.6467 11.3401L101.557 0.655473ZM103.094 -2.22488L97.2709 1.23922L102.932 10.7564L108.756 7.29229L103.094 -2.22488Z" fill="#57585A" mask="url(#path-12-inside-2_9_1410)"/>
        <mask id="path-14-inside-3_9_1410" fill="white">
            <path d="M116.719 12.9318C114.837 9.34439 111.723 6.10798 108.353 3.86127L108.353 10.5647C109.815 11.9678 111.046 13.6026 111.994 15.41C113.461 18.2061 114.202 21.3258 114.149 24.4827C114.096 27.6396 113.251 30.7327 111.692 33.4781C110.743 35.1482 109.548 36.6571 108.154 37.957L108.032 44.7316C111.477 42.599 114.33 39.6356 116.331 36.1132C118.332 32.5909 119.416 28.6224 119.483 24.5721C119.551 20.5217 118.601 16.5192 116.719 12.9318Z"/>
        </mask>
        <path d="M116.719 12.9318L121.622 10.3599V10.3599L116.719 12.9318ZM108.353 3.86127L111.423 -0.746038L102.816 -6.48333L102.816 3.86128L108.353 3.86127ZM108.353 10.5647L102.816 10.5647L102.816 12.9252L104.519 14.5597L108.353 10.5647ZM111.994 15.41L116.898 12.8381H116.898L111.994 15.41ZM114.149 24.4827L108.613 24.39L108.613 24.39L114.149 24.4827ZM111.692 33.4781L106.877 30.7435H106.877L111.692 33.4781ZM108.154 37.957L104.379 33.9069L102.66 35.5088L102.618 37.8577L108.154 37.957ZM108.032 44.7316L102.496 44.6323L102.314 54.7845L110.947 49.4391L108.032 44.7316ZM116.331 36.1132L111.516 33.3785L116.331 36.1132ZM119.483 24.5721L113.947 24.4793L119.483 24.5721ZM121.622 10.3599C119.25 5.83603 115.45 1.93764 111.423 -0.746038L105.282 8.46857C107.997 10.2783 110.425 12.8527 111.816 15.5037L121.622 10.3599ZM102.816 3.86128L102.816 10.5647L113.889 10.5647L113.889 3.86126L102.816 3.86128ZM104.519 14.5597C105.551 15.5507 106.421 16.7054 107.091 17.9819L116.898 12.8381C115.671 10.4998 114.078 8.38488 112.186 6.56973L104.519 14.5597ZM107.091 17.9819C108.127 19.9568 108.65 22.1602 108.613 24.39L119.685 24.5754C119.753 20.4913 118.795 16.4554 116.898 12.8381L107.091 17.9819ZM108.613 24.39C108.575 26.6197 107.979 28.8044 106.877 30.7435L116.506 36.2128C118.524 32.6611 119.617 28.6596 119.685 24.5754L108.613 24.39ZM106.877 30.7435C106.207 31.923 105.364 32.9887 104.379 33.9069L111.929 42.0072C113.733 40.3255 115.279 38.3734 116.506 36.2128L106.877 30.7435ZM102.618 37.8577L102.496 44.6323L113.569 44.8309L113.69 38.0563L102.618 37.8577ZM110.947 49.4391C115.18 46.8184 118.686 43.1766 121.145 38.8479L111.516 33.3785C109.974 36.0946 107.773 38.3796 105.118 40.024L110.947 49.4391ZM121.145 38.8479C123.604 34.5192 124.936 29.6423 125.02 24.6648L113.947 24.4793C113.895 27.6025 113.059 30.6625 111.516 33.3785L121.145 38.8479ZM125.02 24.6648C125.103 19.6872 123.935 14.7685 121.622 10.3599L111.816 15.5037C113.267 18.2699 114 21.3562 113.947 24.4793L125.02 24.6648Z" fill="#EE1B2C" mask="url(#path-14-inside-3_9_1410)"/>
        <path fill-rule="evenodd" clip-rule="evenodd" d="M0 22.7304V45.0238H9.68962C17.9221 45.0238 19.0878 31.8372 9.68962 31.8372H4.88124V26.8831H13.7695V22.7304H0ZM4.88123 35.4066V41.3806H8.30538C12.0209 41.3806 12.0938 35.4066 8.30538 35.4066H4.88123Z" fill="#A70A13"/>
        <path d="M18.3593 49.2491H0V53.3289H6.55689V71.6153H11.7295V53.3289H18.3593V49.2491Z" fill="#57585A"/>
        <path d="M53.475 71.6153V55.6603H58.4291V61.6343H64.2575V55.6603H69.2116V71.6153H64.2575V64.8399H58.4291V71.6153H53.475Z" fill="#57585A"/>
        <path d="M91.9421 55.6603H87.2794V71.6153H91.9421L99.1547 61.27V71.6153H103.744V55.6603H98.7904L91.9421 65.8598V55.6603Z" fill="#57585A"/>
        <path d="M119.262 55.6603H105.274V59.4487H109.719V71.6153H114.818V59.4487H119.262V55.6603Z" fill="#57585A"/>
    </g>
    <defs>
        <clipPath id="clip0_9_1410">
            <rect width="120" height="79" fill="white"/>
        </clipPath>
    </defs>
</svg>
