<svg width="30" height="30" viewBox="0 0 30 30" fill="none" xmlns="http://www.w3.org/2000/svg">
    <path d="M8.37622 7.05176C7.49789 7.05176 6.65552 7.38672 6.03445 7.98295C5.41337 8.57919 5.06445 9.38785 5.06445 10.2311V10.5506L14.9998 15.6867L24.9351 10.5522V10.2311C24.9351 9.38785 24.5861 8.57919 23.9651 7.98295C23.344 7.38672 22.5016 7.05176 21.6233 7.05176H8.37622ZM24.9351 12.3564L15.3922 17.2891C15.2716 17.3514 15.1367 17.3841 14.9998 17.3841C14.8628 17.3841 14.7279 17.3514 14.6073 17.2891L5.06445 12.3564V19.7689C5.06445 20.6121 5.41337 21.4208 6.03445 22.017C6.65552 22.6133 7.49789 22.9482 8.37622 22.9482H21.6233C22.5016 22.9482 23.344 22.6133 23.9651 22.017C24.5861 21.4208 24.9351 20.6121 24.9351 19.7689V12.3564Z" fill="#D4D8E2"/>
</svg>
