<svg width="30" height="30" viewBox="0 0 30 30" fill="none" xmlns="http://www.w3.org/2000/svg">
    <circle cx="14.5" cy="15.5" r="12.5" fill="#D4D8E2"/>
    <path d="M16.3338 17.8176L17.281 16.87C17.4086 16.744 17.57 16.6577 17.7456 16.6217C17.9213 16.5856 18.1036 16.6014 18.2705 16.667L19.4249 17.1281C19.5935 17.1966 19.7382 17.3135 19.8405 17.464C19.9428 17.6146 19.9983 17.7921 20 17.9741V20.0893C19.999 20.2132 19.973 20.3355 19.9235 20.4491C19.874 20.5626 19.802 20.6649 19.712 20.7499C19.6219 20.8349 19.5155 20.9007 19.3994 20.9435C19.2832 20.9863 19.1595 21.0051 19.0359 20.9988C10.9466 20.4954 9.31432 13.6423 9.00563 11.0195C8.9913 10.8907 9.00439 10.7604 9.04405 10.637C9.0837 10.5136 9.14902 10.4 9.2357 10.3037C9.32238 10.2074 9.42846 10.1306 9.54696 10.0782C9.66546 10.0259 9.7937 9.99922 9.92324 10H11.9657C12.1479 10.0006 12.3258 10.0556 12.4766 10.1582C12.6273 10.2607 12.7439 10.406 12.8114 10.5753L13.2723 11.7302C13.3401 11.8965 13.3573 12.0791 13.322 12.2551C13.2867 12.4312 13.2002 12.5929 13.0735 12.7201L12.1263 13.6677C12.1263 13.6677 12.6718 17.3608 16.3338 17.8176Z" fill="white"/>
</svg>
