<svg width="30" height="30" viewBox="0 0 30 30" fill="none" xmlns="http://www.w3.org/2000/svg">
    <path d="M17.6675 18.5032L19.3036 16.8664C19.5239 16.6487 19.8027 16.4997 20.1061 16.4374C20.4095 16.3752 20.7244 16.4024 21.0127 16.5157L23.0067 17.3121C23.2979 17.4304 23.5477 17.6323 23.7245 17.8924C23.9013 18.1525 23.9971 18.459 24 18.7735V22.427C23.9983 22.6409 23.9534 22.8523 23.8678 23.0484C23.7823 23.2445 23.6581 23.4212 23.5025 23.568C23.3469 23.7148 23.1632 23.8285 22.9625 23.9024C22.7618 23.9763 22.5483 24.0088 22.3347 23.998C8.36224 23.1284 5.54292 11.2913 5.00973 6.76099C4.98498 6.53852 5.00759 6.31333 5.07608 6.10024C5.14457 5.88714 5.25739 5.69096 5.40711 5.52462C5.55683 5.35827 5.74006 5.22552 5.94475 5.13511C6.14943 5.04469 6.37094 4.99866 6.59468 5.00003H10.1225C10.4373 5.00096 10.7446 5.09609 11.005 5.27318C11.2653 5.45027 11.4667 5.70123 11.5833 5.99377L12.3794 7.98855C12.4965 8.27576 12.5263 8.59111 12.4653 8.8952C12.4042 9.19929 12.255 9.47864 12.0361 9.69836L10.4 11.3351C10.4 11.3351 11.3423 17.714 17.6675 18.5032Z" fill="#D4D8E2"/>
</svg>
