<svg width="30" height="30" viewBox="0 0 30 30" fill="none" xmlns="http://www.w3.org/2000/svg">
    <path d="M9.23747 16.6624L14.5567 11.4211C14.6201 11.3589 14.6887 11.3149 14.7625 11.2892C14.8364 11.2631 14.9156 11.25 15 11.25C15.0844 11.25 15.1636 11.2631 15.2375 11.2892C15.3113 11.3149 15.3799 11.3589 15.4433 11.4211L20.7784 16.6624C20.9261 16.8076 21 16.9891 21 17.2068C21 17.4245 20.9208 17.6112 20.7625 17.7667C20.6042 17.9222 20.4195 18 20.2084 18C19.9974 18 19.8127 17.9222 19.6544 17.7667L15 13.1941L10.3456 17.7667C10.1979 17.9119 10.0159 17.9844 9.79979 17.9844C9.58322 17.9844 9.39578 17.9067 9.23747 17.7512C9.07915 17.5956 9 17.4142 9 17.2068C9 16.9994 9.07915 16.818 9.23747 16.6624Z" fill="#57585A"/>
</svg>
